<svg width="15" height="14" viewBox="0 0 15 14" fill="none" xmlns="http://www.w3.org/2000/svg">
<path d="M5.88123 2.2832L10.3793 6.76758C10.5078 6.89609 10.5078 7.10391 10.3793 7.23242L5.88123 11.7168C5.75271 11.8453 5.5449 11.8453 5.41638 11.7168L5.22224 11.5227C5.09373 11.3941 5.09373 11.1863 5.22224 11.0578L8.83162 7.46484H1.1781C0.997632 7.46484 0.849976 7.31719 0.849976 7.13672V6.86328C0.849976 6.68281 0.997632 6.53516 1.1781 6.53516H8.83162L5.22498 2.94219C5.09646 2.81367 5.09646 2.60586 5.22498 2.47734L5.41912 2.2832C5.5449 2.15469 5.75271 2.15469 5.88123 2.2832ZM14.85 10.9375V3.0625C14.85 2.33789 14.2621 1.75 13.5375 1.75H9.9281C9.74763 1.75 9.59998 1.89766 9.59998 2.07812V2.29688C9.59998 2.47734 9.74763 2.625 9.9281 2.625H13.5375C13.7781 2.625 13.975 2.82187 13.975 3.0625V10.9375C13.975 11.1781 13.7781 11.375 13.5375 11.375H9.9281C9.74763 11.375 9.59998 11.5227 9.59998 11.7031V11.9219C9.59998 12.1023 9.74763 12.25 9.9281 12.25H13.5375C14.2621 12.25 14.85 11.6621 14.85 10.9375Z" fill="#030712"/>
</svg>
