<svg width="15" height="14" viewBox="0 0 15 14" fill="none" xmlns="http://www.w3.org/2000/svg">
<path d="M5.88086 2.2832L10.3789 6.76758C10.5074 6.89609 10.5074 7.10391 10.3789 7.23242L5.88086 11.7168C5.75234 11.8453 5.54453 11.8453 5.41602 11.7168L5.22187 11.5227C5.09336 11.3941 5.09336 11.1863 5.22187 11.0578L8.83125 7.46484H1.17773C0.997266 7.46484 0.849609 7.31719 0.849609 7.13672V6.86328C0.849609 6.68281 0.997266 6.53516 1.17773 6.53516H8.83125L5.22461 2.94219C5.09609 2.81367 5.09609 2.60586 5.22461 2.47734L5.41875 2.2832C5.54453 2.15469 5.75234 2.15469 5.88086 2.2832ZM14.8496 10.9375V3.0625C14.8496 2.33789 14.2617 1.75 13.5371 1.75H9.92773C9.74727 1.75 9.59961 1.89766 9.59961 2.07812V2.29688C9.59961 2.47734 9.74727 2.625 9.92773 2.625H13.5371C13.7777 2.625 13.9746 2.82187 13.9746 3.0625V10.9375C13.9746 11.1781 13.7777 11.375 13.5371 11.375H9.92773C9.74727 11.375 9.59961 11.5227 9.59961 11.7031V11.9219C9.59961 12.1023 9.74727 12.25 9.92773 12.25H13.5371C14.2617 12.25 14.8496 11.6621 14.8496 10.9375Z" fill="#52525B"/>
</svg>
