<svg width="18" height="14" viewBox="0 0 18 14" fill="none" xmlns="http://www.w3.org/2000/svg">
<path d="M17.7402 6.125H15.334V3.71875C15.334 3.59844 15.2355 3.5 15.1152 3.5H14.6777C14.5574 3.5 14.459 3.59844 14.459 3.71875V6.125H12.0527C11.9324 6.125 11.834 6.22344 11.834 6.34375V6.78125C11.834 6.90156 11.9324 7 12.0527 7H14.459V9.40625C14.459 9.52656 14.5574 9.625 14.6777 9.625H15.1152C15.2355 9.625 15.334 9.52656 15.334 9.40625V7H17.7402C17.8605 7 17.959 6.90156 17.959 6.78125V6.34375C17.959 6.22344 17.8605 6.125 17.7402 6.125ZM9.03398 7.875C8.24922 7.875 7.87187 8.3125 6.58398 8.3125C5.29609 8.3125 4.92148 7.875 4.13398 7.875C2.10508 7.875 0.458984 9.52109 0.458984 11.55V12.6875C0.458984 13.4121 1.04688 14 1.77148 14H11.3965C12.1211 14 12.709 13.4121 12.709 12.6875V11.55C12.709 9.52109 11.0629 7.875 9.03398 7.875ZM11.834 12.6875C11.834 12.9281 11.6371 13.125 11.3965 13.125H1.77148C1.53086 13.125 1.33398 12.9281 1.33398 12.6875V11.55C1.33398 10.0051 2.58906 8.75 4.13398 8.75C4.66992 8.75 5.20312 9.1875 6.58398 9.1875C7.96211 9.1875 8.49805 8.75 9.03398 8.75C10.5789 8.75 11.834 10.0051 11.834 11.55V12.6875ZM6.58398 7C8.51719 7 10.084 5.4332 10.084 3.5C10.084 1.5668 8.51719 0 6.58398 0C4.65078 0 3.08398 1.5668 3.08398 3.5C3.08398 5.4332 4.65078 7 6.58398 7ZM6.58398 0.875C8.03047 0.875 9.20898 2.05352 9.20898 3.5C9.20898 4.94648 8.03047 6.125 6.58398 6.125C5.1375 6.125 3.95898 4.94648 3.95898 3.5C3.95898 2.05352 5.1375 0.875 6.58398 0.875Z" fill="#52525B"/>
</svg>
