<svg width="18" height="14" viewBox="0 0 18 14" fill="none" xmlns="http://www.w3.org/2000/svg">
<path d="M17.7412 6.125H15.335V3.71875C15.335 3.59844 15.2365 3.5 15.1162 3.5H14.6787C14.5584 3.5 14.46 3.59844 14.46 3.71875V6.125H12.0537C11.9334 6.125 11.835 6.22344 11.835 6.34375V6.78125C11.835 6.90156 11.9334 7 12.0537 7H14.46V9.40625C14.46 9.52656 14.5584 9.625 14.6787 9.625H15.1162C15.2365 9.625 15.335 9.52656 15.335 9.40625V7H17.7412C17.8615 7 17.96 6.90156 17.96 6.78125V6.34375C17.96 6.22344 17.8615 6.125 17.7412 6.125ZM9.03496 7.875C8.2502 7.875 7.87285 8.3125 6.58496 8.3125C5.29707 8.3125 4.92246 7.875 4.13496 7.875C2.10605 7.875 0.459961 9.52109 0.459961 11.55V12.6875C0.459961 13.4121 1.04785 14 1.77246 14H11.3975C12.1221 14 12.71 13.4121 12.71 12.6875V11.55C12.71 9.52109 11.0639 7.875 9.03496 7.875ZM11.835 12.6875C11.835 12.9281 11.6381 13.125 11.3975 13.125H1.77246C1.53184 13.125 1.33496 12.9281 1.33496 12.6875V11.55C1.33496 10.0051 2.59004 8.75 4.13496 8.75C4.6709 8.75 5.2041 9.1875 6.58496 9.1875C7.96309 9.1875 8.49902 8.75 9.03496 8.75C10.5799 8.75 11.835 10.0051 11.835 11.55V12.6875ZM6.58496 7C8.51816 7 10.085 5.4332 10.085 3.5C10.085 1.5668 8.51816 0 6.58496 0C4.65176 0 3.08496 1.5668 3.08496 3.5C3.08496 5.4332 4.65176 7 6.58496 7ZM6.58496 0.875C8.03145 0.875 9.20996 2.05352 9.20996 3.5C9.20996 4.94648 8.03145 6.125 6.58496 6.125C5.13848 6.125 3.95996 4.94648 3.95996 3.5C3.95996 2.05352 5.13848 0.875 6.58496 0.875Z" fill="#52525B"/>
</svg>
