<svg width="51" height="51" viewBox="0 0 51 51" fill="none" xmlns="http://www.w3.org/2000/svg">
<path d="M4.6665 6.75H17.1665C19.3766 6.75 21.4963 7.62797 23.0591 9.19078C24.6219 10.7536 25.4998 12.8732 25.4998 15.0833V44.25C25.4998 42.5924 24.8414 41.0027 23.6693 39.8306C22.4972 38.6585 20.9074 38 19.2498 38H4.6665V6.75Z" stroke="#1F2937" stroke-width="4" stroke-linecap="round" stroke-linejoin="round"/>
<path d="M46.3333 6.75H33.8333C31.6232 6.75 29.5036 7.62797 27.9408 9.19078C26.378 10.7536 25.5 12.8732 25.5 15.0833V44.25C25.5 42.5924 26.1585 41.0027 27.3306 39.8306C28.5027 38.6585 30.0924 38 31.75 38H46.3333V6.75Z" stroke="#1F2937" stroke-width="4" stroke-linecap="round" stroke-linejoin="round"/>
</svg>
